<svg width="60" height="60" viewBox="0 0 60 60" fill="none" xmlns="http://www.w3.org/2000/svg">
<rect width="60" height="60" rx="30" fill="#4F38F4"/>
<path d="M43.0001 38.538C43.0001 36.0737 41.0051 34.0759 38.5442 34.0759C36.0833 34.0759 34.0884 36.0737 34.0884 38.538C34.0884 41.0024 36.0833 43.0001 38.5442 43.0001C41.0051 43.0001 43.0001 41.0024 43.0001 38.538Z" fill="white"/>
<path d="M42.0203 17H37.396L29.5256 24.8788L18.1639 36.2831C17.7911 36.6448 17.4957 37.0786 17.2956 37.5582C17.0956 38.0378 16.995 38.5531 17.0002 39.0728C17.0002 40.1136 17.4132 41.1117 18.1483 41.8476C18.8834 42.5835 19.8805 42.9969 20.9201 42.9969C21.4366 43.0025 21.949 42.9052 22.4275 42.7104C22.906 42.5157 23.3409 42.2274 23.7069 41.8626L42.694 22.8554C42.864 22.6711 42.9618 22.4317 42.9696 22.181V17.9504C42.9696 17.8256 42.9451 17.702 42.8974 17.5867C42.8497 17.4714 42.7797 17.3666 42.6916 17.2784C42.6034 17.1901 42.4988 17.1201 42.3836 17.0723C42.2684 17.0246 42.145 17 42.0203 17Z" fill="white"/>
<path d="M20.9503 17C20.433 17 19.9207 17.1025 19.4431 17.3016C18.9655 17.5007 18.532 17.7925 18.1676 18.1601C17.8032 18.5278 17.5151 18.964 17.32 19.4436C17.1248 19.9233 17.0264 20.4368 17.0304 20.9547C17.0304 21.9954 17.4434 22.9935 18.1785 23.7294C18.9136 24.4653 19.9107 24.8788 20.9503 24.8788H29.5558L37.4262 17H20.9503Z" fill="url(#paint0_linear_461_3308)"/>
<defs>
<linearGradient id="paint0_linear_461_3308" x1="16.931" y1="21.5087" x2="38.5647" y2="21.5087" gradientUnits="userSpaceOnUse">
<stop stop-color="white"/>
<stop offset="1" stop-color="white" stop-opacity="0.6"/>
</linearGradient>
</defs>
</svg>
